<svg width="94" height="94" viewBox="0 0 94 94" fill="none" xmlns="http://www.w3.org/2000/svg">
<rect width="94" height="94" rx="47" fill="white"/>
<path d="M24.6357 39.4395L35.7099 45.5151L29.0819 57.6331L24.388 55.0658" stroke="black" stroke-linecap="round"/>
<path d="M31.813 43.3838L25.185 55.5018" stroke="black"/>
<path d="M68.2741 39.7001L56.8916 46.6272L64.0721 58.4262L68.6424 55.6448" stroke="black" stroke-linecap="round"/>
<path d="M67.8672 56.1179L60.6867 44.3189" stroke="black"/>
<path d="M49.0156 57.8619L56.4898 64.321C57.2574 64.9844 58.4175 64.8999 59.0808 64.1322V64.1322C59.7263 63.3854 59.6661 62.262 58.9446 61.5884L51.6672 54.7935L49.0244 51.7695" stroke="black" stroke-linecap="round" stroke-linejoin="round"/>
<path d="M45.4842 48.6939C43.1925 47.8962 36.9897 48.1642 35.2892 46.6863" stroke="black" stroke-linecap="round" stroke-linejoin="round"/>
<path d="M49.0156 57.8618L55.8341 63.7543C56.5873 64.4052 56.6702 65.5434 56.0193 66.2965V66.2965C55.3685 67.0497 54.2303 67.1326 53.4771 66.4817L47.3405 61.1785" stroke="black" stroke-linecap="round"/>
<path d="M47.3408 61.1787L52.7956 65.8927C53.5488 66.5436 53.6317 67.6818 52.9808 68.4349V68.4349C52.33 69.1881 51.1918 69.271 50.4386 68.6201L45.6657 64.4954" stroke="black" stroke-linecap="round"/>
<path d="M45.6655 64.4951L49.7454 68.0209C50.5048 68.6772 50.5884 69.8247 49.9321 70.5841V70.5841C49.2835 71.3346 48.1529 71.4263 47.3918 70.7902L45.5002 69.2091" stroke="black" stroke-linecap="round"/>
<path d="M63.2683 57.506L59.0923 61.385" stroke="black"/>
<path d="M34.8458 59.3528L30.0182 56.3231" stroke="black"/>
<path d="M53.8922 49.2957L53.8033 49.7877L53.8922 49.2957ZM49.4011 51.9757C49.5336 51.7334 49.4447 51.4296 49.2024 51.297C48.9601 51.1645 48.6563 51.2535 48.5238 51.4958L49.4011 51.9757ZM57.3088 47.7896C56.9547 47.997 56.3472 48.3018 55.6992 48.5283C55.0317 48.7617 54.4076 48.8806 53.981 48.8036L53.8033 49.7877C54.4986 49.9132 55.3314 49.7162 56.0292 49.4723C56.7464 49.2215 57.4126 48.8877 57.8142 48.6525L57.3088 47.7896ZM53.981 48.8036C53.3431 48.6884 52.4577 48.3271 51.5402 47.9572C51.0951 47.7777 50.6475 47.5988 50.2461 47.4628C49.8558 47.3305 49.4594 47.2207 49.1294 47.2086L49.0925 48.2079C49.266 48.2143 49.5436 48.2806 49.9251 48.4098C50.2954 48.5354 50.7172 48.7036 51.1663 48.8846C52.0371 49.2358 53.0389 49.6496 53.8033 49.7877L53.981 48.8036ZM49.1294 47.2086C48.5484 47.1871 47.7789 47.3283 47.0686 47.5363C46.3583 47.7444 45.6342 48.0406 45.1566 48.372L45.7267 49.1936C46.0769 48.9506 46.6839 48.691 47.3497 48.496C48.0154 48.3011 48.6666 48.1922 49.0925 48.2079L49.1294 47.2086ZM45.1566 48.372C44.762 48.6459 44.2142 48.9671 43.6415 49.3026C43.0807 49.6311 42.4949 49.9738 42.0617 50.2744L42.6318 51.096C43.0264 50.8222 43.5742 50.5009 44.1469 50.1655C44.7078 49.8369 45.2935 49.4942 45.7267 49.1936L45.1566 48.372ZM42.0617 50.2744C41.8179 50.4436 41.5768 50.6643 41.3969 50.9176C41.2215 51.1645 41.069 51.4938 41.1012 51.8608C41.136 52.2573 41.3741 52.5781 41.7413 52.8012C42.0931 53.0149 42.5845 53.1559 43.2195 53.2325L43.3393 52.2397C42.7698 52.171 42.4388 52.0548 42.2605 51.9465C42.0977 51.8476 42.0981 51.7815 42.0974 51.7734C42.0941 51.7359 42.1084 51.6428 42.2121 51.4967C42.3114 51.3569 42.4618 51.214 42.6318 51.096L42.0617 50.2744ZM43.2195 53.2325C44.4985 53.3867 45.9249 53.2256 47.0492 52.9817C47.6138 52.8592 48.1166 52.7128 48.4999 52.5669C48.6904 52.4944 48.8624 52.4179 49.0014 52.3392C49.0708 52.2998 49.1409 52.255 49.2039 52.204C49.2614 52.1575 49.3427 52.0825 49.4011 51.9757L48.5238 51.4958C48.5552 51.4384 48.5873 51.4166 48.575 51.4266C48.5683 51.432 48.5481 51.4466 48.5085 51.4691C48.4295 51.5138 48.3084 51.5699 48.1442 51.6324C47.8181 51.7565 47.3653 51.8899 46.8373 52.0044C45.7764 52.2345 44.4693 52.3759 43.3393 52.2397L43.2195 53.2325Z" fill="black"/>
<circle cx="47" cy="32" r="11" fill="url(#paint0_linear_4684_884)"/>
<path d="M45.4819 36.0559C45.4819 36.3287 45.703 36.5498 45.9758 36.5498C46.2486 36.5498 46.4698 36.3287 46.4698 36.0558V34.8645H48.8718C49.182 34.8645 49.4335 34.613 49.4335 34.3028C49.4335 33.9925 49.182 33.741 48.8718 33.741H46.4698V32.6175H48.6926C50.0544 32.6175 51.1624 31.3575 51.1624 29.8088C51.1624 28.26 50.0544 27 48.6926 27H45.9758C45.8448 27 45.7192 27.0592 45.6265 27.1645C45.5339 27.2699 45.4819 27.4128 45.4819 27.5618V31.494H44.5618C44.2515 31.494 44 31.7455 44 32.0558C44 32.366 44.2515 32.6175 44.5618 32.6175H45.4819V33.741H44.5618C44.2515 33.741 44 33.9925 44 34.3028C44 34.613 44.2515 34.8645 44.5618 34.8645H45.4819V36.0559ZM46.4698 28.1235H48.6926C49.5096 28.1235 50.1744 28.8796 50.1744 29.8088C50.1744 30.7379 49.5096 31.494 48.6926 31.494H46.4698V28.1235Z" fill="black"/>
<path fill-rule="evenodd" clip-rule="evenodd" d="M35.9411 62.1582L38.2285 60.0019C38.5841 59.5228 38.5565 58.8435 38.1329 58.3942C37.6575 57.8898 36.8632 57.8664 36.3589 58.3418L34.3942 60.1938C33.8898 60.6692 33.8664 61.4635 34.3418 61.9679C34.7653 62.4171 35.4418 62.4848 35.9411 62.1582ZM34.9778 63.345C34.4745 63.2829 33.9891 63.0516 33.6141 62.6538C32.7599 61.7475 32.802 60.3204 33.7082 59.4661L35.6729 57.6141C36.5792 56.7599 38.0064 56.802 38.8606 57.7082C39.2161 58.0854 39.4164 58.5528 39.4637 59.0315C40.3066 58.6758 41.3175 58.8579 41.9819 59.5627C42.4682 60.0786 42.664 60.7632 42.5754 61.4148C43.2313 61.3646 43.9033 61.6005 44.3897 62.1164C45.1561 62.9296 45.201 64.1621 44.5474 65.0239C45.0326 65.0948 45.4982 65.3237 45.8606 65.7082C46.7149 66.6145 46.6727 68.0416 45.7665 68.8959L43.8018 70.7479C42.8955 71.6022 41.4684 71.56 40.6141 70.6538C40.1626 70.1748 39.9615 69.5502 40.0061 68.9417C39.2448 69.1256 38.409 68.9073 37.8334 68.2967C37.3471 67.7808 37.1513 67.0962 37.2399 66.4446C36.584 66.4948 35.912 66.2589 35.4256 65.7429C34.8004 65.0797 34.6554 64.1375 34.9778 63.345ZM41.2159 62.0093C41.2112 62.0136 41.2066 62.018 41.202 62.0223L37.9275 65.109C37.9228 65.1134 37.9181 65.1179 37.9134 65.1224C37.4084 65.5844 36.6244 65.5567 36.1533 65.057C35.6779 64.5527 35.7013 63.7584 36.2057 63.283L36.5714 62.9382C36.6512 62.8807 36.7282 62.8172 36.8018 62.7479L38.7665 60.8959C38.84 60.8266 38.9079 60.7535 38.97 60.6772L39.4802 60.1963C39.9846 59.7208 40.7788 59.7443 41.2543 60.2487C41.7253 60.7483 41.7066 61.5325 41.2159 62.0093ZM38.5994 65.85C38.1087 66.3269 38.09 67.1111 38.561 67.6107C39.0364 68.1151 39.8307 68.1385 40.3351 67.6631L43.6096 64.5764C44.114 64.101 44.1374 63.3067 43.662 62.8024C43.1909 62.3026 42.4069 62.275 41.9019 62.737C41.8972 62.7415 41.8925 62.7459 41.8878 62.7504L38.6133 65.8371C38.6087 65.8414 38.6041 65.8457 38.5994 65.85ZM43.1158 70.0202L45.0806 68.1682C45.5849 67.6928 45.6084 66.8985 45.1329 66.3942C44.6575 65.8898 43.8632 65.8664 43.3589 66.3418L41.3942 68.1938C40.8898 68.6692 40.8664 69.4635 41.3418 69.9679C41.8172 70.4722 42.6115 70.4957 43.1158 70.0202Z" fill="black"/>
<defs>
<linearGradient id="paint0_linear_4684_884" x1="36" y1="32" x2="57.9796" y2="32" gradientUnits="userSpaceOnUse">
<stop stop-color="#16FF00"/>
<stop offset="1" stop-color="#4DFFC9"/>
<stop offset="1" stop-color="#4DFFC9"/>
</linearGradient>
</defs>
</svg>
