<svg width="94" height="94" viewBox="0 0 94 94" fill="none" xmlns="http://www.w3.org/2000/svg">
<rect width="94" height="94" rx="47" fill="white"/>
<path fill-rule="evenodd" clip-rule="evenodd" d="M61.4467 52.4207L60.9265 56.5415L53.7157 55.6311L54.2338 51.5271C52.8385 50.8916 51.6016 49.972 50.5237 48.7676L46.6597 50.4334L43.7255 43.8951L47.6072 42.232C47.565 41.8244 47.5479 41.4033 47.5557 40.9679C47.5658 40.7047 47.5812 40.4422 47.6025 40.1811C47.6211 40.0339 47.6403 39.8818 47.6603 39.7229C47.7702 38.8529 47.9625 38.0267 48.2368 37.2457L44.8881 34.6871L49.3554 29.083L52.7189 31.6616C54.0479 30.7841 55.4618 30.2047 56.9615 29.9229L57.4796 25.819L64.6904 26.7294L64.1723 30.8333C64.9463 31.1955 65.6746 31.6438 66.3567 32.1774C66.5586 32.3407 66.7602 32.5095 66.9602 32.6844C67.2645 32.9643 67.5611 33.2599 67.8499 33.572L71.766 31.9125L74.7002 38.4511L70.8012 40.1127C70.8742 40.9258 70.8556 41.7676 70.7458 42.6376C70.6372 43.4973 70.4468 44.3111 70.1739 45.0812L73.5376 47.6591L69.0703 53.2629L65.7067 50.6846C64.3763 51.5731 62.9565 52.152 61.4467 52.4207ZM60.2467 46.4807C60.977 46.3544 61.6619 46.079 62.301 45.6544C62.4032 45.5873 62.4997 45.5195 62.5905 45.4502C63.5102 44.7507 64.1303 43.8755 64.4503 42.8247C64.5478 42.5162 64.6172 42.1971 64.6586 41.869C64.6772 41.7224 64.6894 41.5806 64.695 41.4435C64.7078 41.2496 64.709 41.0542 64.6986 40.858C64.6942 40.8004 64.6906 40.7366 64.6876 40.6673C64.6029 39.6684 64.222 38.742 63.5454 37.8869C63.4747 37.7972 63.3981 37.7075 63.3158 37.6171C62.7922 37.0339 62.1924 36.59 61.5164 36.2868C61.0177 36.0631 60.4741 35.9137 59.8862 35.8395C59.8052 35.8293 59.7189 35.8184 59.6267 35.8068C59.1397 35.7682 58.6627 35.7887 58.196 35.8676C57.4543 35.9918 56.7571 36.2719 56.105 36.7067C56.0144 36.7753 55.9237 36.8439 55.833 36.9131C55.4574 37.1984 55.1305 37.5134 54.8529 37.8576C54.4516 38.3463 54.159 38.901 53.975 39.5208C53.8777 39.8307 53.8074 40.1545 53.7646 40.4936C53.7217 40.8333 53.7044 41.1582 53.7117 41.4689C53.772 42.5677 54.1607 43.5702 54.8781 44.4764C54.9487 44.5661 55.0203 44.6489 55.0923 44.7276C55.1024 44.74 55.1126 44.7524 55.1226 44.7655C55.2971 44.9601 55.4742 45.137 55.6526 45.298C56.0352 45.6101 56.4422 45.8626 56.8747 46.055C57.3834 46.2918 57.9376 46.4474 58.5373 46.5231C59.1367 46.5988 59.7066 46.5851 60.2467 46.4807Z" fill="url(#paint0_linear_4684_872)"/>
<path d="M35.4575 42.1053C35.9392 41.919 36.371 41.6743 36.7468 41.367C37.2517 40.9686 37.66 40.4761 37.9701 39.8951C38.0197 39.8031 38.0659 39.7106 38.1079 39.6177C38.5188 38.7121 38.6353 37.7807 38.4465 36.8378L38.4474 36.8375C38.3945 36.5602 38.3153 36.2875 38.2121 36.0207C38.1679 35.9062 38.1198 35.7959 38.0685 35.6898L38.0682 35.6889C37.9972 35.5337 37.9173 35.3822 37.8278 35.2353L37.8205 35.2245C37.8001 35.1927 37.7775 35.1552 37.7522 35.1128L37.7468 35.1043L37.7411 35.095C37.3171 34.4466 36.7417 33.9415 36.0287 33.5773L35.7154 33.4304C35.6218 33.3899 35.5255 33.3526 35.4269 33.3179C34.7933 33.0908 34.1506 32.9976 33.5037 33.0449C33.0273 33.0797 32.5522 33.1898 32.0806 33.3721L31.8802 33.4496L31.8697 33.4548C31.4865 33.6239 31.1332 33.8349 30.8103 34.0863L30.8091 34.0858C30.2896 34.4893 29.8716 34.9937 29.5545 35.5907L29.5471 35.604L29.5409 35.6179C29.5044 35.6978 29.4675 35.7789 29.4306 35.8606L29.4319 35.8611C29.2648 36.2287 29.1434 36.6025 29.0727 36.9821L29.074 36.9827C28.9681 37.5278 28.9723 38.0779 29.0865 38.629C29.1401 38.9069 29.22 39.1826 29.326 39.4567C29.4302 39.7262 29.5486 39.9776 29.6813 40.2104L29.685 40.2173L29.6896 40.2239C30.1297 40.9424 30.7334 41.4985 31.4898 41.8899L31.824 42.0476C31.9143 42.0867 32.0014 42.1201 32.0854 42.1496L32.1082 42.1597L32.1255 42.1666L32.4339 42.2682C32.5354 42.2988 32.6357 42.3265 32.7349 42.3508L32.7599 42.3558C33.1749 42.4354 33.588 42.4613 33.9982 42.4308L33.9973 42.4312C34.4882 42.4022 34.9755 42.2917 35.4575 42.1053ZM33.0103 29.3564L33.3742 29.3361C33.9966 29.3007 34.62 29.3359 35.2444 29.4422C35.4317 29.4774 35.62 29.517 35.8092 29.5599C36.1072 29.6357 36.407 29.7238 36.7069 29.8263L37.0397 29.9395L37.2595 29.6661L39.0188 27.4707L42.6421 30.2505L40.906 32.4243L40.6798 32.7086L40.88 33.0123C41.2083 33.509 41.4898 34.0588 41.7234 34.6629C41.954 35.2592 42.1141 35.8513 42.2056 36.4407L42.2615 36.7992L42.6201 36.8573L45.3675 37.2985L44.5564 41.7919L41.791 41.3472L41.438 41.29L41.2703 41.6061C40.7192 42.6456 40.0055 43.5103 39.1291 44.2057L38.8407 44.4345L39.9564 47.32L35.6245 48.9951L34.5136 46.1223L34.1463 46.147C33.031 46.2221 31.9156 46.0598 30.7965 45.6561L30.4584 45.5345L30.2346 45.8168L28.514 47.993L24.8923 45.2147L26.6157 43.0458L26.8445 42.7574L26.6378 42.4531C26.5543 42.3304 26.4731 42.2029 26.3947 42.0707L26.1669 41.6604L25.9312 41.1537L25.8019 40.8194C25.5684 40.2153 25.4054 39.6138 25.3108 39.0158L25.254 38.6577L24.8948 38.6007L22.1679 38.1663L22.9784 33.6742L25.7425 34.1184L26.0942 34.175L26.2622 33.8619C26.8171 32.8282 27.5282 31.963 28.3955 31.2613L28.6787 31.0324L27.569 28.1623L31.9009 26.4873L33.0103 29.3564Z" stroke="black"/>
<path d="M44.5492 65.1861C44.8738 65.0817 45.1762 64.9466 45.4535 64.7793L45.7141 64.6073C46.1825 64.2812 46.5698 63.8662 46.8738 63.3684C46.9221 63.2901 46.9679 63.2108 47.0097 63.1308C47.4173 62.3549 47.5685 61.5394 47.4501 60.6984C47.4176 60.4514 47.3618 60.207 47.2845 59.9669C47.2516 59.8645 47.2152 59.7654 47.1756 59.6696L47.1753 59.6687C47.1479 59.5984 47.1182 59.5289 47.0867 59.4602L46.986 59.2556L46.9805 59.245C46.9648 59.2173 46.947 59.1847 46.9275 59.1472L46.9224 59.1376L46.9175 59.1289C46.5277 58.4502 45.9538 57.9278 45.2172 57.5585C45.1377 57.5184 45.0556 57.4816 44.972 57.4466L44.9717 57.4456C44.4252 57.2131 43.8626 57.098 43.289 57.1068C42.8672 57.1131 42.4432 57.186 42.0196 57.3222L41.8299 57.3832C41.4841 57.5126 41.1626 57.6812 40.8654 57.8864C40.3869 58.2157 39.9922 58.6378 39.6829 59.1469L39.6747 59.1598L39.6678 59.1733C39.6322 59.2408 39.5968 59.31 39.5606 59.3791C39.3952 59.6936 39.2695 60.0166 39.1879 60.3474L39.1891 60.348C39.0675 60.8257 39.0432 61.3137 39.1169 61.8074L39.1181 61.8081C39.1513 62.0527 39.2056 62.2969 39.284 62.5405C39.3617 62.7822 39.4533 63.0091 39.5582 63.2207L39.5615 63.2278L39.5658 63.2347C39.9172 63.8909 40.4217 64.4118 41.0679 64.7949L41.3528 64.9505C41.4251 64.9869 41.4955 65.0175 41.5631 65.046L41.5621 65.0463C41.572 65.0511 41.5757 65.0525 41.5778 65.0536L41.595 65.0624L41.6128 65.07L41.8776 65.1756C41.9652 65.2076 42.0524 65.2357 42.1383 65.262L42.15 65.2665L42.162 65.2688L42.4347 65.3288C42.7056 65.3791 42.9771 65.4026 43.249 65.3982L43.2481 65.3985C43.6822 65.3979 44.1164 65.3253 44.5492 65.1861ZM42.9988 54.0169L43.3629 54.0167C43.8983 54.0172 44.4314 54.0781 44.9617 54.2L44.9607 54.2003C45.1235 54.2407 45.2874 54.2844 45.4513 54.3318C45.7016 54.4113 45.952 54.5018 46.2026 54.6041L46.5283 54.7363L46.7633 54.475L48.3557 52.7092L51.2571 55.2135L49.6886 56.9613L49.4455 57.2324L49.6284 57.5459C49.8855 57.9884 50.0997 58.4752 50.2706 59.0064C50.4392 59.5305 50.5481 60.0475 50.5973 60.558L50.6315 60.9194L50.9871 60.9978L53.2804 61.5034L52.3833 65.2297L50.0718 64.7186L49.7221 64.6423L49.5363 64.9483C49.0111 65.8142 48.355 66.5207 47.5683 67.074L47.2671 67.2858L48.0844 69.8265L44.3714 71.0209L43.5577 68.4913L43.1895 68.4949C42.2287 68.5039 41.2792 68.3099 40.3375 67.9074L40.0066 67.7656L39.7669 68.0345L38.2093 69.7871L35.31 67.2831L36.8673 65.5389L37.1126 65.2651L36.9239 64.9493C36.8584 64.84 36.7951 64.7264 36.7344 64.6091L36.5588 64.245L36.3756 63.7808L36.2868 63.5047C36.116 62.9737 36.0053 62.4485 35.9538 61.9304L35.9187 61.5693L35.5634 61.4918L33.2867 60.9932L34.1832 57.2682L36.4944 57.7783L36.8423 57.8551L37.0286 57.5511C37.557 56.6902 38.2104 55.9829 38.9898 55.4235L39.2858 55.2113L38.4733 52.6855L42.1863 51.4911L42.9988 54.0169Z" stroke="black"/>
<defs>
<linearGradient id="paint0_linear_4684_872" x1="74.1178" y1="43.0633" x2="44.3334" y2="39.3028" gradientUnits="userSpaceOnUse">
<stop stop-color="#16FF00"/>
<stop offset="1" stop-color="#4DFFC9"/>
<stop offset="1" stop-color="#4DFFC9"/>
</linearGradient>
</defs>
</svg>
