<svg width="122" height="31" viewBox="0 0 122 31" fill="none" xmlns="http://www.w3.org/2000/svg">
<path d="M51.9316 10.6499V3.86697H53.1941L55.0222 8.21665H55.4154L57.2436 3.86697H58.506V10.6499H57.7219V4.8367V4.73947H57.7058L55.9282 9.00216H54.491L52.725 4.73947H52.7066V4.8367V10.6499H51.9316Z" fill="#333333"/>
<path d="M60.5755 10.0031C60.3306 9.78134 60.1378 9.51638 60.0091 9.22446C59.8804 8.93255 59.8184 8.6198 59.8269 8.30534C59.8255 7.99096 59.8922 7.67942 60.023 7.38849C60.1539 7.09756 60.3464 6.83294 60.5895 6.60974C60.8327 6.38655 61.1218 6.20914 61.4403 6.08766C61.7587 5.96618 62.1004 5.903 62.4457 5.90172C62.7909 5.90045 63.1331 5.96111 63.4527 6.08024C63.7722 6.19936 64.0629 6.37463 64.308 6.59602C64.5532 6.81742 64.748 7.08061 64.8814 7.37056C65.0149 7.66052 65.0843 7.97156 65.0857 8.28593C65.0726 8.75483 64.9104 9.21021 64.6189 9.59692C64.3273 9.98363 63.9189 10.2851 63.443 10.4648C62.9671 10.6444 62.4442 10.6946 61.9377 10.6092C61.4311 10.5239 60.9626 10.3066 60.5888 9.98375L60.5755 10.0031ZM61.1483 7.07321C60.9784 7.23415 60.8455 7.42427 60.7572 7.63249C60.669 7.8407 60.6271 8.06284 60.6341 8.28593C60.6281 8.50892 60.6705 8.73079 60.7587 8.93887C60.8469 9.14695 60.9793 9.33717 61.1483 9.49866C61.4987 9.80362 61.9649 9.97382 62.4496 9.97382C62.9344 9.97382 63.4006 9.80362 63.751 9.49866C63.9211 9.33788 64.0542 9.14778 64.1425 8.93953C64.2308 8.73128 64.2725 8.50906 64.2652 8.28593C64.2731 8.06294 64.232 7.84075 64.1441 7.63247C64.0563 7.42419 63.9235 7.23403 63.7537 7.07321C63.4055 6.76431 62.9385 6.59144 62.4523 6.59144C61.9661 6.59144 61.4992 6.76431 61.151 7.07321H61.1483Z" fill="#333333"/>
<path d="M66.4021 9.98202C66.1799 9.75566 66.0063 9.48752 65.892 9.19365C65.7776 8.89978 65.7247 8.58623 65.7365 8.27178C65.7277 7.96018 65.7826 7.65001 65.8977 7.35959C66.0129 7.06917 66.1861 6.80439 66.407 6.58088C66.6378 6.35508 66.9134 6.17841 67.2166 6.06185C67.5197 5.94529 67.8441 5.89134 68.1694 5.90335C68.4947 5.91535 68.814 5.99307 69.1075 6.13165C69.4009 6.27024 69.6622 6.46673 69.8752 6.7089C70.066 6.94465 70.2087 7.21453 70.2952 7.50363H69.5583C69.4856 7.33406 69.3815 7.17925 69.2513 7.04708C69.0979 6.89371 68.9135 6.77364 68.71 6.6946C68.5065 6.61555 68.2885 6.57928 68.0699 6.58812C67.8572 6.58371 67.6462 6.6246 67.4511 6.70799C67.2561 6.79139 67.0817 6.91531 66.94 7.07124C66.6316 7.39653 66.4643 7.82715 66.4733 8.27178C66.4602 8.71926 66.628 9.1536 66.94 9.47957C67.0808 9.63279 67.2529 9.75503 67.4451 9.83829C67.6373 9.92154 67.8451 9.96393 68.0551 9.96269C68.2849 9.97384 68.5143 9.93453 68.7268 9.84763C68.9392 9.76072 69.1293 9.62839 69.2832 9.46025C69.4217 9.31514 69.5295 9.14433 69.6001 8.95781H70.3369C70.2096 9.45281 69.9143 9.89024 69.4998 10.1977C69.0853 10.5052 68.5765 10.6643 68.0576 10.6487C67.7496 10.6572 67.4433 10.6022 67.1582 10.4874C66.8731 10.3726 66.6156 10.2005 66.4021 9.98202Z" fill="#333333"/>
<path d="M70.9956 10.6473V5.9017H71.8049V7.80093H72.8273L74.462 5.9017H75.4439L73.5556 8.13166L75.5977 10.6372H74.5753L72.8353 8.51501H71.813V10.6498L70.9956 10.6473Z" fill="#333333"/>
<path d="M76.2519 9.993C76.0374 9.77489 75.8688 9.51442 75.7563 9.22752C75.6438 8.94062 75.5899 8.63332 75.5978 8.32443C75.588 8.00996 75.6402 7.69668 75.7514 7.40321C75.8626 7.10973 76.0304 6.84205 76.2449 6.61605C76.4595 6.39006 76.7163 6.21037 77.0002 6.08765C77.2842 5.96494 77.5894 5.9017 77.8977 5.9017C78.2061 5.9017 78.5113 5.96494 78.7952 6.08765C79.0791 6.21037 79.336 6.39006 79.5505 6.61605C79.765 6.84205 79.9329 7.10973 80.044 7.40321C80.1552 7.69668 80.2074 8.00996 80.1976 8.32443C80.1865 8.78572 80.0445 9.23382 79.7887 9.61435C79.5329 9.99487 79.1744 10.2915 78.7566 10.4681C78.3388 10.6448 77.8798 10.6939 77.4352 10.6096C76.9906 10.5253 76.5796 10.3111 76.2519 9.993ZM76.7565 7.11352C76.6072 7.27137 76.4903 7.45817 76.4129 7.66287C76.3354 7.86758 76.299 8.08604 76.3057 8.30536C76.2993 8.52464 76.3358 8.74303 76.4132 8.9477C76.4907 9.15236 76.6074 9.33919 76.7565 9.4972C77.0639 9.79691 77.4726 9.96417 77.8977 9.96417C78.3228 9.96417 78.7316 9.79691 79.0389 9.4972C79.1871 9.33849 79.3032 9.15155 79.3805 8.94705C79.4579 8.74255 79.495 8.5245 79.4897 8.30536C79.4959 8.0861 79.4592 7.86779 79.3818 7.66316C79.3044 7.45853 79.1878 7.27169 79.0389 7.11352C78.7335 6.80993 78.324 6.64004 77.8977 6.64004C77.4714 6.64004 77.0619 6.80993 76.7565 7.11352Z" fill="#333333"/>
<path d="M81.5146 10.6491V5.90399H83.8426C84.2203 5.88342 84.5925 6.00199 84.8886 6.2372C85.0112 6.34265 85.1088 6.47401 85.1743 6.62177C85.2398 6.76952 85.2716 6.92998 85.2674 7.09153C85.2687 7.23771 85.2467 7.38318 85.2022 7.52244C85.1673 7.6328 85.112 7.73563 85.0391 7.82559C84.9802 7.89492 84.9118 7.95564 84.8359 8.00598C84.7801 8.04528 84.7194 8.07728 84.6553 8.10118C84.623 8.11307 84.5893 8.12065 84.555 8.12373C84.5935 8.1271 84.6315 8.13552 84.6679 8.14878C84.7464 8.17338 84.8214 8.2079 84.8911 8.2515C84.9853 8.30761 85.0735 8.37309 85.1545 8.44692C85.2481 8.54094 85.3208 8.65363 85.3677 8.77762C85.4294 8.93218 85.4601 9.09731 85.4581 9.26366C85.4663 9.45165 85.4325 9.63912 85.3592 9.81246C85.2859 9.98579 85.1748 10.1407 85.0341 10.2658C84.7023 10.5367 84.2804 10.6726 83.8526 10.6466L81.5146 10.6491ZM82.2672 7.85065H83.7874C84.2615 7.85065 84.4998 7.64521 84.4998 7.23182C84.4998 6.81844 84.2615 6.61551 83.7874 6.61551H82.2672V7.85065ZM82.2672 9.9376H83.835C84.0635 9.95281 84.2897 9.8852 84.4722 9.74719C84.5451 9.68203 84.6026 9.60144 84.6403 9.51128C84.6781 9.42112 84.6952 9.32369 84.6904 9.22608C84.6954 9.12808 84.6784 9.03021 84.6406 8.93962C84.6029 8.84903 84.5453 8.768 84.4722 8.70246C84.2894 8.56534 84.0631 8.49863 83.835 8.51456H82.2672V9.9376Z" fill="#333333"/>
<path d="M86.786 9.95656C86.5662 9.73312 86.394 9.46865 86.2796 9.17871C86.1651 8.88876 86.1107 8.57921 86.1197 8.26828C86.1105 7.95731 86.1647 7.64768 86.2792 7.3577C86.3936 7.06772 86.566 6.80327 86.786 6.57999C87.0165 6.35449 87.2915 6.17805 87.5942 6.06164C87.8968 5.94524 88.2205 5.89135 88.5452 5.90334C88.8699 5.91533 89.1886 5.99293 89.4815 6.13133C89.7744 6.26973 90.0353 6.46595 90.2479 6.70782C90.4384 6.94276 90.5799 7.21241 90.6644 7.50131H89.9294C89.8576 7.3316 89.7537 7.17689 89.6231 7.04548C89.4703 6.8921 89.2864 6.77205 89.0834 6.69311C88.8803 6.61417 88.6628 6.5781 88.4447 6.58723C88.2326 6.58282 88.0221 6.62365 87.8275 6.70691C87.633 6.79018 87.4591 6.9139 87.3177 7.06959C87.0154 7.39936 86.8547 7.83159 86.8693 8.27551C86.8556 8.72196 87.0221 9.15558 87.3324 9.48143C87.4729 9.63429 87.6446 9.75626 87.8363 9.83938C88.0279 9.92249 88.2353 9.96489 88.4447 9.9638C88.6739 9.9751 88.9028 9.93593 89.1147 9.84915C89.3266 9.76237 89.5162 9.63015 89.6697 9.46214C89.8095 9.3185 89.9172 9.1476 89.9857 8.96047H90.7207C90.6406 9.26975 90.4954 9.55899 90.2944 9.80944C90.0735 10.0805 89.7917 10.2974 89.4711 10.4431C89.1506 10.5887 88.8 10.6591 88.4471 10.6488C88.1363 10.6552 87.8277 10.5968 87.5414 10.4775C87.2551 10.3582 86.9977 10.1807 86.786 9.95656Z" fill="#333333"/>
<path d="M91.3735 10.6473V5.9017H92.1847V7.80093H93.2068L94.8454 5.9017H95.8188L93.926 8.13166L95.9756 10.6372H94.9508L93.2149 8.51501H92.1928V10.6498L91.3735 10.6473Z" fill="#333333"/>
<path d="M96.6377 10.6498V5.9017H97.3476V9.46149V9.55676H97.3642L99.7754 5.9017H100.582V10.6498H99.8724V7.08997V6.99471H99.8535L97.4446 10.6498H96.6377Z" fill="#333333"/>
<path d="M101.896 10.6499V5.80386H102.606V9.43712V9.53435H102.622L105.033 5.80386H105.84V10.6499H105.13V7.01665V6.91943H105.111L102.701 10.6499H101.896ZM102.54 3.86697H103.205C103.202 3.94662 103.216 4.02587 103.246 4.09891C103.275 4.17196 103.32 4.23695 103.375 4.28915C103.52 4.40494 103.698 4.46119 103.877 4.44778C104.06 4.46417 104.242 4.40774 104.389 4.28915C104.444 4.23671 104.488 4.1716 104.517 4.09857C104.546 4.02554 104.56 3.94642 104.557 3.86697L105.229 3.86697C105.232 4.03282 105.201 4.19731 105.138 4.34832C105.074 4.49933 104.98 4.633 104.862 4.73947C104.583 4.97942 104.231 5.09966 103.875 5.07721C103.519 5.09902 103.169 4.97882 102.89 4.73947C102.775 4.63116 102.685 4.49671 102.624 4.34582C102.563 4.19493 102.534 4.03137 102.54 3.86697V3.86697Z" fill="#333333"/>
<path d="M51.9316 18.7887V14.0407H52.6424V17.6024V17.6977H52.6613L55.0708 14.0407H55.8763V18.7887H55.1655V15.2271V15.1318H55.1489L52.7395 18.7887H51.9316Z" fill="#333333"/>
<path d="M57.1865 18.7887V14.0407H57.899V15.9871H60.4187V14.0407H61.1311V18.7887H60.4187V16.6994H57.9061V18.7887H57.1865Z" fill="#333333"/>
<path d="M62.4565 18.7887V14.0407H63.1694V15.9871H65.6883V14.0407H66.4012V18.7887H65.6883V16.6994H63.1694V18.7887H62.4565Z" fill="#333333"/>
<path d="M68.3638 18.132C68.1496 17.9136 67.9812 17.6531 67.8687 17.3663C67.7563 17.0794 67.7022 16.7722 67.7097 16.4634C67.6998 16.1489 67.7521 15.8357 67.8632 15.5422C67.9744 15.2487 68.1422 14.981 68.3567 14.755C68.5713 14.529 68.8281 14.3493 69.1121 14.2266C69.396 14.1039 69.7012 14.0407 70.0095 14.0407C70.3179 14.0407 70.6231 14.1039 70.907 14.2266C71.1909 14.3493 71.4478 14.529 71.6623 14.755C71.8768 14.981 72.0447 15.2487 72.1558 15.5422C72.267 15.8357 72.3192 16.1489 72.3094 16.4634C72.2983 16.9247 72.1563 17.3728 71.9005 17.7533C71.6447 18.1338 71.2862 18.4304 70.8684 18.6071C70.4507 18.7838 69.9916 18.8329 69.547 18.7486C69.1024 18.6642 68.6914 18.45 68.3638 18.132ZM68.8684 15.2525C68.7188 15.4102 68.6018 15.597 68.5243 15.8017C68.4469 16.0064 68.4105 16.225 68.4175 16.4443C68.4107 16.6637 68.4471 16.8822 68.5245 17.0869C68.602 17.2916 68.7189 17.4784 68.8684 17.6362C69.1737 17.9398 69.5832 18.1097 70.0095 18.1097C70.4359 18.1097 70.8453 17.9398 71.1507 17.6362C71.3002 17.4784 71.4171 17.2916 71.4945 17.0869C71.572 16.8822 71.6084 16.6637 71.6016 16.4443C71.6085 16.225 71.5722 16.0064 71.4947 15.8017C71.4173 15.597 71.3003 15.4102 71.1507 15.2525C70.8453 14.9489 70.4359 14.779 70.0095 14.779C69.5832 14.779 69.1737 14.9489 68.8684 15.2525Z" fill="#333333"/>
<path d="M73.623 18.7887V14.0433H75.956C76.3347 14.0213 76.7083 14.1391 77.0054 14.3742C77.1287 14.4795 77.2268 14.6109 77.2925 14.7588C77.3583 14.9067 77.39 15.0673 77.3854 15.229C77.3869 15.3753 77.3648 15.5209 77.32 15.6602C77.2608 15.8607 77.1301 16.0327 76.9525 16.144C76.8965 16.1834 76.8356 16.2154 76.7713 16.2393C76.7393 16.2529 76.7054 16.2613 76.6707 16.2643C76.7099 16.2679 76.7487 16.2754 76.7864 16.2869C76.8654 16.312 76.9408 16.3474 77.0104 16.3922C77.1007 16.4478 77.185 16.5125 77.2621 16.5852C77.3562 16.6801 77.4291 16.7937 77.476 16.9186C77.538 17.0724 77.5688 17.2368 77.5666 17.4025C77.5743 17.5903 77.5404 17.7774 77.4673 17.9507C77.3943 18.124 77.2838 18.2792 77.1438 18.4052C76.8094 18.675 76.3855 18.8101 75.956 18.7837L73.623 18.7887ZM74.378 15.9886H75.9006C76.3788 15.9886 76.6153 15.783 76.6153 15.3719C76.6153 14.9608 76.3863 14.7627 75.9081 14.7627H74.3856L74.378 15.9886ZM74.378 18.0768H75.9484C76.1777 18.0932 76.4051 18.0254 76.5876 17.8863C76.657 17.8182 76.7121 17.737 76.7497 17.6475C76.7874 17.558 76.8067 17.4619 76.8067 17.3649C76.8067 17.2678 76.7874 17.1717 76.7497 17.0822C76.7121 16.9927 76.657 16.9115 76.5876 16.8434C76.4051 16.7043 76.1777 16.6365 75.9484 16.6529H74.378V18.0768Z" fill="#333333"/>
<path d="M78.879 18.1125C78.4465 17.6542 78.2138 17.0454 78.2314 16.4183C78.2135 15.7911 78.4462 15.1823 78.879 14.7241C79.077 14.5058 79.3199 14.332 79.5913 14.2143C79.8627 14.0966 80.1563 14.0377 80.4526 14.0415C80.7919 14.0317 81.1283 14.1075 81.43 14.2618C81.6601 14.3768 81.8607 14.5424 82.0164 14.7458L82.0995 14.8814V14.1214H82.8325V18.7031H82.0995V17.9624L82.0164 18.0907C81.8656 18.29 81.6698 18.4517 81.4446 18.5627C81.1363 18.7209 80.7923 18.7984 80.4452 18.7878C80.1508 18.7915 79.8589 18.7332 79.5889 18.6168C79.3188 18.5004 79.0769 18.3285 78.879 18.1125ZM79.4287 15.1936C79.1266 15.5241 78.9663 15.9581 78.9816 16.4038C78.9665 16.8493 79.1269 17.2833 79.4287 17.6139C79.5741 17.7645 79.7487 17.8844 79.9421 17.9663C80.1355 18.0482 80.3436 18.0904 80.554 18.0904C80.7643 18.0904 80.9725 18.0482 81.1658 17.9663C81.3592 17.8844 81.5339 17.7645 81.6792 17.6139C81.9811 17.2833 82.1414 16.8493 82.1264 16.4038C82.1417 15.9581 81.9813 15.5241 81.6792 15.1936C81.5339 15.043 81.3592 14.9231 81.1658 14.8412C80.9725 14.7593 80.7643 14.7171 80.554 14.7171C80.3436 14.7171 80.1355 14.7593 79.9421 14.8412C79.7487 14.9231 79.5741 15.043 79.4287 15.1936Z" fill="#333333"/>
<path d="M84.1514 19.0046V14.0407H84.8976V18.2599H87.3479V14.0407H88.0942V18.2599H88.7534V20.1453H88.0071V19.0046H84.1514Z" fill="#333333"/>
<path d="M89.4062 18.7887V14.0407H90.1161V17.6024V17.6977H90.1327L92.544 14.0407H93.3509V18.7887H92.641V15.2271V15.1318H92.6244L90.2132 18.7887H89.4062Z" fill="#333333"/>
<path d="M95.3257 18.132C95.1115 17.9136 94.9431 17.6531 94.8306 17.3663C94.7182 17.0794 94.6641 16.7722 94.6716 16.4634C94.6618 16.1489 94.714 15.8357 94.8251 15.5422C94.9363 15.2487 95.1041 14.981 95.3187 14.755C95.5332 14.529 95.79 14.3493 96.074 14.2266C96.3579 14.1039 96.6631 14.0407 96.9714 14.0407C97.2798 14.0407 97.585 14.1039 97.8689 14.2266C98.1528 14.3493 98.4097 14.529 98.6242 14.755C98.8388 14.981 99.0066 15.2487 99.1178 15.5422C99.2289 15.8357 99.2811 16.1489 99.2713 16.4634C99.2602 16.9247 99.1182 17.3728 98.8624 17.7533C98.6066 18.1338 98.2481 18.4304 97.8303 18.6071C97.4126 18.7838 96.9535 18.8329 96.5089 18.7486C96.0643 18.6642 95.6533 18.45 95.3257 18.132ZM95.8303 15.2525C95.6807 15.4102 95.5637 15.597 95.4862 15.8017C95.4088 16.0064 95.3725 16.225 95.3794 16.4443C95.3726 16.6637 95.409 16.8822 95.4864 17.0869C95.5639 17.2916 95.6808 17.4784 95.8303 17.6362C96.1356 17.9398 96.5451 18.1097 96.9714 18.1097C97.3978 18.1097 97.8073 17.9398 98.1126 17.6362C98.2621 17.4784 98.379 17.2916 98.4565 17.0869C98.5339 16.8822 98.5703 16.6637 98.5635 16.4443C98.5704 16.225 98.5341 16.0064 98.4566 15.8017C98.3792 15.597 98.2622 15.4102 98.1126 15.2525C97.8073 14.9489 97.3978 14.779 96.9714 14.779C96.5451 14.779 96.1356 14.9489 95.8303 15.2525Z" fill="#333333"/>
<path d="M100.582 18.7887V14.0407H101.294V15.9871H103.814V14.0407H104.527V18.7887H103.814V16.6994H101.302V18.7887H100.582Z" fill="#333333"/>
<path d="M105.84 18.7887V14.0407H106.553V15.9871H109.072V14.0407H109.784V18.7887H109.072V16.6994H106.553V18.7887H105.84Z" fill="#333333"/>
<path d="M111.101 18.7871V14.0407H111.882V15.6529H113.064C113.558 15.6331 114.041 15.7944 114.416 16.1042C114.58 16.2438 114.712 16.4154 114.802 16.6078C114.892 16.8002 114.939 17.0089 114.939 17.22C114.939 17.4311 114.892 17.6398 114.802 17.8322C114.712 18.0246 114.58 18.1962 114.416 18.3358C114.041 18.6456 113.558 18.8069 113.064 18.7871H111.101ZM111.882 18.075H113.064C113.352 18.0928 113.637 18.008 113.864 17.8368C113.954 17.7592 114.026 17.6641 114.075 17.5579C114.125 17.4516 114.15 17.3364 114.15 17.22C114.15 17.1036 114.125 16.9884 114.075 16.8822C114.026 16.7759 113.954 16.6808 113.864 16.6032C113.638 16.4287 113.354 16.3396 113.064 16.3525H111.882V18.075ZM115.579 18.7871V14.0407H116.361V18.7871H115.579Z" fill="#333333"/>
<path d="M117.682 18.7889V13.9454H118.392V17.5787V17.6759H118.408L120.819 13.9454H121.626V18.7889H120.916V15.1556V15.0584H120.897L118.486 18.7889H117.682ZM118.328 12.006H119C118.997 12.0857 119.011 12.165 119.04 12.2381C119.07 12.3112 119.114 12.3762 119.17 12.4281C119.319 12.5334 119.494 12.5894 119.672 12.5894C119.85 12.5894 120.024 12.5334 120.173 12.4281C120.229 12.3762 120.274 12.3112 120.303 12.2381C120.333 12.165 120.347 12.0857 120.344 12.006H121.016C121.022 12.1729 120.992 12.3392 120.93 12.4921C120.868 12.645 120.774 12.7806 120.656 12.8887C120.368 13.1099 120.024 13.2288 119.671 13.2288C119.317 13.2288 118.973 13.1099 118.685 12.8887C118.568 12.7803 118.475 12.6445 118.413 12.4916C118.351 12.3388 118.322 12.1727 118.328 12.006Z" fill="#333333"/>
<path d="M51.9316 26.9308V22.1827H52.6273V24.0829H53.5062L54.9116 22.1827H55.7441L54.1208 24.4138L55.8763 26.9207H55.0043L53.5109 24.7849H52.632V26.9207L51.9316 26.9308Z" fill="#333333"/>
<path d="M55.8726 26.9308L57.1839 22.1827H59.1633L60.4746 26.9308H59.668L58.5893 22.8947H57.7455L56.6693 26.9308H55.8726Z" fill="#333333"/>
<path d="M61.7769 26.2482C61.3623 25.7797 61.1338 25.1787 61.1338 24.5566C61.1338 23.9344 61.3623 23.3334 61.7769 22.8649C61.9749 22.647 62.2178 22.4735 62.4894 22.3559C62.7609 22.2384 63.0547 22.1796 63.3512 22.1834C63.6911 22.1748 64.0278 22.2504 64.3305 22.4033C64.5596 22.5204 64.7601 22.6853 64.9181 22.8866L65.0013 23.0244V22.2631H65.7358V26.8403H65.0013V26.1153L64.9181 26.2434C64.7693 26.4381 64.5776 26.5967 64.3574 26.7074C64.0481 26.8641 63.7036 26.9406 63.3561 26.9298C63.0588 26.9342 62.764 26.8757 62.4916 26.7582C62.2192 26.6406 61.9755 26.4667 61.7769 26.2482ZM62.318 23.3337C62.0288 23.6754 61.8703 24.1065 61.8703 24.5517C61.8703 24.997 62.0288 25.4281 62.318 25.7697C62.4638 25.9194 62.6387 26.0385 62.8322 26.1199C63.0257 26.2013 63.2339 26.2432 63.4442 26.2432C63.6546 26.2432 63.8628 26.2013 64.0563 26.1199C64.2498 26.0385 64.4247 25.9194 64.5704 25.7697C64.8615 25.4289 65.0211 24.9975 65.0211 24.5517C65.0211 24.106 64.8615 23.6745 64.5704 23.3337C64.4251 23.1834 64.2503 23.0637 64.0567 22.982C63.8631 22.9002 63.6548 22.8581 63.4442 22.8581C63.2337 22.8581 63.0253 22.9002 62.8317 22.982C62.6382 23.0637 62.4634 23.1834 62.318 23.3337Z" fill="#333333"/>
<path d="M67.7231 26.2529C67.2912 25.7893 67.0518 25.1843 67.0518 24.5565C67.0518 23.9288 67.2912 23.3237 67.7231 22.8602C67.954 22.635 68.2298 22.4587 68.5333 22.3425C68.8367 22.2262 69.1613 22.1724 69.4869 22.1843C69.8125 22.1963 70.1321 22.2738 70.4258 22.4121C70.7195 22.5503 70.981 22.7463 71.1941 22.9879C71.3861 23.2225 71.5289 23.4919 71.6145 23.7807H70.877C70.8031 23.6075 70.6963 23.4497 70.5623 23.3156C70.4088 23.1626 70.2242 23.0428 70.0206 22.964C69.8169 22.8851 69.5987 22.849 69.3799 22.8578C69.1671 22.8534 68.9559 22.8942 68.7607 22.9774C68.5655 23.0605 68.391 23.1842 68.2491 23.3397C67.9441 23.6682 67.7818 24.1005 67.7968 24.5445C67.7836 24.9909 67.9516 25.4241 68.2639 25.7493C68.4048 25.9021 68.5771 26.024 68.7694 26.1071C68.9617 26.1901 69.1698 26.2324 69.3799 26.2312C69.6099 26.2423 69.8395 26.2031 70.0521 26.1164C70.2647 26.0297 70.455 25.8977 70.6091 25.73C70.7441 25.5898 70.8486 25.4242 70.9163 25.2433H71.6538C71.5735 25.5522 71.4277 25.8412 71.2261 26.0914C71.0052 26.3613 70.7236 26.5774 70.4033 26.7229C70.083 26.8683 69.7328 26.9392 69.3799 26.93C69.0708 26.9368 68.7637 26.8802 68.4783 26.7635C68.1929 26.6469 67.9356 26.4729 67.7231 26.2529Z" fill="#333333"/>
<path d="M71.6494 22.8947V22.1827H75.594V22.8947H73.9886V26.9308H73.2621V22.8947H71.6494Z" fill="#333333"/>
<path d="M76.9202 26.2529C76.4975 25.7915 76.2627 25.1857 76.2627 24.5567C76.2627 23.9277 76.4975 23.3219 76.9202 22.8605C77.1329 22.6392 77.3885 22.4648 77.6711 22.3483C77.9537 22.2318 78.257 22.1756 78.5621 22.1834C78.867 22.1765 79.1702 22.2322 79.4533 22.3473C79.7363 22.4624 79.9932 22.6345 80.2085 22.8531C80.4237 23.0716 80.5928 23.3321 80.7055 23.6188C80.8182 23.9054 80.8721 24.2122 80.8639 24.5206V24.7856H76.987C77.0238 25.1875 77.2073 25.5611 77.5017 25.8337C77.7894 26.1054 78.1709 26.2525 78.5644 26.2433C78.9833 26.2537 79.3913 26.1079 79.7106 25.8337C79.8496 25.7204 79.9661 25.5814 80.0538 25.4241H80.7686C80.6016 25.8761 80.2992 26.2642 79.9037 26.5341C79.5081 26.8041 79.0391 26.9424 78.5621 26.93C78.257 26.9379 77.9536 26.8819 77.671 26.7653C77.3884 26.6488 77.1328 26.4743 76.9202 26.2529ZM77.0013 24.1471H80.099C80.0491 23.7944 79.8748 23.4717 79.6082 23.2387C79.3201 22.9876 78.9493 22.8552 78.5692 22.8677C78.1872 22.8569 77.8147 22.989 77.5231 23.2387C77.2468 23.4682 77.0615 23.7907 77.0013 24.1471Z" fill="#333333"/>
<path d="M82.1777 28.9656V22.2886H82.9103V23.0552L83.0031 22.9096C83.1524 22.7034 83.3455 22.5363 83.5671 22.4215C83.875 22.2538 84.2189 22.1719 84.5658 22.1838C84.8618 22.18 85.1552 22.2422 85.4264 22.3665C85.6976 22.4908 85.9403 22.6742 86.1383 22.9044C86.5519 23.3998 86.7798 24.0354 86.7798 24.6932C86.7798 25.351 86.5519 25.9865 86.1383 26.4819C85.8142 26.8391 85.3896 27.0788 84.9263 27.1661C84.463 27.2534 83.9851 27.1838 83.5622 26.9674C83.3378 26.8547 83.1451 26.683 83.0031 26.4691L82.9103 26.3337V28.9656H82.1777ZM83.3669 23.4206C83.0766 23.781 82.9174 24.2372 82.9174 24.7085C82.9174 25.1798 83.0766 25.636 83.3669 25.9964C83.5123 26.1547 83.6867 26.2806 83.8797 26.3666C84.0727 26.4526 84.2803 26.497 84.4901 26.497C84.6999 26.497 84.9075 26.4526 85.1006 26.3666C85.2936 26.2806 85.468 26.1547 85.6134 25.9964C85.9036 25.636 86.0628 25.1798 86.0628 24.7085C86.0628 24.2372 85.9036 23.781 85.6134 23.4206C85.4684 23.2617 85.294 23.1352 85.101 23.0487C84.9079 22.9623 84.7001 22.9177 84.4901 22.9177C84.2801 22.9177 84.0723 22.9623 83.8793 23.0487C83.6862 23.1352 83.5119 23.2617 83.3669 23.4206Z" fill="#333333"/>
<path d="M45.6475 0.484894H34.7368V29.997H45.6475V0.484894Z" fill="#333333"/>
<path d="M28.2759 0.484894H17.3652V27.3429H28.2759V0.484894Z" fill="#333333"/>
<path d="M-0.00634766 30.4719V18.9167C4.60267 18.9106 9.02094 16.965 12.278 13.5073C15.535 10.0496 17.3644 5.3626 17.3644 0.475739L28.2751 0.475739C28.2694 8.42764 25.2882 16.0523 19.9859 21.676C14.6836 27.2998 7.49345 30.4632 -0.00634766 30.4719Z" fill="url(#paint0_linear_5467_642)"/>
<path d="M17.3652 30.4719V18.9167C21.9748 18.9115 26.3939 16.9663 29.6516 13.5085C32.9093 10.0507 34.7391 5.36316 34.7391 0.475739L45.6498 0.475739C45.6432 8.42795 42.6613 16.0525 37.3586 21.6762C32.0558 27.2999 24.8653 30.4632 17.3652 30.4719Z" fill="url(#paint1_linear_5467_642)"/>
<defs>
<linearGradient id="paint0_linear_5467_642" x1="3.40383" y1="27.4193" x2="29.099" y2="2.68835" gradientUnits="userSpaceOnUse">
<stop stop-color="#00EF12"/>
<stop offset="1" stop-color="#00FFE9"/>
</linearGradient>
<linearGradient id="paint1_linear_5467_642" x1="1134.89" y1="3293.46" x2="3475.44" y2="1041.23" gradientUnits="userSpaceOnUse">
<stop stop-color="#00EF12"/>
<stop offset="1" stop-color="#00FFE9"/>
</linearGradient>
</defs>
</svg>
